<svg xmlns="http://www.w3.org/2000/svg" data-name="Layer 1" viewBox="0 0 64 80" x="0px" y="0px"><title>Weather-icons</title><path d="M32.44,13.83a2,2,0,0,0-3.5,1.35c.14,6.61-2.65,10.23-5.34,13.72-2.18,2.84-4.25,5.52-4.25,9.31a12.65,12.65,0,0,0,25.3,0C44.65,29,38.12,20.32,32.44,13.83Zm.08,6.31c3.33,4.2,6.44,9,7.62,14a5,5,0,0,1-2.86,1.75,4.36,4.36,0,0,1-3.36-1.49,9,9,0,0,0-6.76-2.76c-.23,0-.45,0-.66.07l.27-.36C28.94,28.53,31.51,25.18,32.52,20.14ZM32,46.86a8.66,8.66,0,0,1-8.65-8.65c0-.11,0-.21,0-.32a2,2,0,0,0,.53-.43,5.73,5.73,0,0,1,3.52-1.84,5.14,5.14,0,0,1,3.75,1.69A8.43,8.43,0,0,0,37,39.9a7.86,7.86,0,0,0,.83,0,7.36,7.36,0,0,0,2.83-1A8.65,8.65,0,0,1,32,46.86Z"/><text x="0" y="79" fill="#000000" font-size="5px" font-weight="bold" font-family="'Helvetica Neue', Helvetica, Arial-Unicode, Arial, Sans-serif">Created by Akriti Bhusal</text><text x="0" y="84" fill="#000000" font-size="5px" font-weight="bold" font-family="'Helvetica Neue', Helvetica, Arial-Unicode, Arial, Sans-serif">from the Noun Project</text></svg>