<svg xmlns:dc="http://purl.org/dc/elements/1.1/" xmlns:cc="http://creativecommons.org/ns#" xmlns:rdf="http://www.w3.org/1999/02/22-rdf-syntax-ns#" xmlns:svg="http://www.w3.org/2000/svg" xmlns="http://www.w3.org/2000/svg" xmlns:sodipodi="http://sodipodi.sourceforge.net/DTD/sodipodi-0.dtd" xmlns:inkscape="http://www.inkscape.org/namespaces/inkscape" version="1.1" x="0px" y="0px" viewBox="0 0 100 125"><g transform="translate(0,-952.36218)"><path style="text-indent:0;text-transform:none;direction:ltr;block-progression:tb;baseline-shift:baseline;color:#000000;enable-background:accumulate;" d="m 50,979.36218 c -12.6906,0 -23,10.3093 -23,23.00002 0,12.6907 10.3094,23 23,23 12.6907,0 23,-10.3093 23,-23 0,-12.69072 -10.3093,-23.00002 -23,-23.00002 z m 0,2 c 11.6098,0 21,9.3902 21,21.00002 0,11.6098 -9.3902,21 -21,21 -11.6097,0 -21,-9.3902 -21,-21 0,-11.60982 9.3903,-21.00002 21,-21.00002 z m -1,6 0,14.00002 -14,0 0,2 14,0 0,14 2,0 0,-14 14,0 0,-2 -14,0 0,-14.00002 -2,0 z" fill="#000000" fill-opacity="1" stroke="none" marker="none" visibility="visible" display="inline" overflow="visible"/></g><text x="0" y="115" fill="#000000" font-size="5px" font-weight="bold" font-family="'Helvetica Neue', Helvetica, Arial-Unicode, Arial, Sans-serif">Created by Aybige</text><text x="0" y="120" fill="#000000" font-size="5px" font-weight="bold" font-family="'Helvetica Neue', Helvetica, Arial-Unicode, Arial, Sans-serif">from the Noun Project</text></svg>