<svg xmlns="http://www.w3.org/2000/svg" xmlns:xlink="http://www.w3.org/1999/xlink" version="1.1" x="0px" y="0px" viewBox="0 0 100 125" style="enable-background:new 0 0 100 100;" xml:space="preserve"><path d="M89.5,39.9l-6.4-1.5c-0.4-1.2-0.9-2.4-1.5-3.6l3.5-5.6c1.2-1.9,1-4.4-0.5-5.8l-8.1-8.1c-1.4-1.4-3.9-1.6-5.8-0.5l-5.6,3.5  c-1.2-0.6-2.4-1.1-3.6-1.5l-1.5-6.4c-0.5-2.2-2.4-3.8-4.4-3.8H44.3c-2,0-3.9,1.6-4.4,3.8l-1.5,6.4c-1.2,0.4-2.4,0.9-3.6,1.5  l-5.6-3.5c-1.9-1.2-4.4-1-5.8,0.5l-8.1,8.1c-1.4,1.4-1.6,3.9-0.5,5.8l3.5,5.6c-0.6,1.2-1.1,2.4-1.5,3.6l-6.4,1.5  c-2.2,0.5-3.8,2.4-3.8,4.4v11.4c0,2,1.6,3.9,3.8,4.4l6.4,1.5c0.4,1.2,0.9,2.4,1.5,3.6l-3.5,5.6c-1.2,1.9-1,4.4,0.5,5.8l8.1,8.1  c1.4,1.4,3.9,1.6,5.8,0.5l5.6-3.5c1.2,0.6,2.4,1.1,3.6,1.5l1.5,6.4c0.5,2.2,2.4,3.8,4.4,3.8h11.4c2,0,3.9-1.6,4.4-3.8l1.5-6.4  c1.2-0.4,2.4-0.9,3.6-1.5l5.6,3.5c1.9,1.2,4.4,1,5.8-0.5l8.1-8.1c1.4-1.4,1.6-3.9,0.5-5.8l-3.5-5.6c0.6-1.2,1.1-2.4,1.5-3.6l6.4-1.5  c2.1-0.5,3.8-2.4,3.8-4.4V44.3C93.3,42.3,91.7,40.4,89.5,39.9z M88.5,55.4C88.5,55.4,88.5,55.4,88.5,55.4l-7.4,1.7c0,0,0,0,0,0h0  l-1.6,0.1L79,58.9c-0.6,1.8-1.3,3.6-2.2,5.4L76,65.7l1,1.2l4,6.4c0,0,0,0,0,0l-7.7,7.7c0,0,0,0,0,0l-6.4-4c0,0,0,0,0,0L65.7,76  l-1.4,0.8c-1.7,0.9-3.5,1.7-5.4,2.2l-1.5,0.6l-0.2,1.5l-1.7,7.4c0,0,0,0,0,0H44.6c0,0,0,0,0,0l-1.7-7.4c0,0,0,0,0,0l-0.1-1.6  L41.1,79c-1.8-0.6-3.6-1.3-5.4-2.2L34.3,76l-1.2,1l-6.4,4c0,0,0,0,0,0L19,73.4c0,0,0,0,0,0l4-6.4c0,0,0,0,0,0l1-1.2l-0.8-1.4  c-0.9-1.7-1.7-3.5-2.2-5.4l-0.6-1.5l-1.5-0.2l-7.4-1.7c0,0,0,0,0,0V44.6c0,0,0,0,0,0l7.4-1.7c0,0,0,0,0,0l1.6-0.1l0.5-1.5  c0.6-1.8,1.3-3.6,2.2-5.4l0.7-1.5l-1-1.2l-4-6.4c0,0,0,0,0,0l7.7-7.7c0,0,0,0,0,0l6.4,4c0,0,0,0,0,0l1.2,1l1.4-0.8  c1.7-0.9,3.5-1.7,5.4-2.2l1.5-0.6l0.2-1.5l1.7-7.4c0,0,0,0,0,0h10.9c0,0,0,0,0,0l1.3,5.8l0,0l0,0.2l0.3,1.1l0.2,1.4l0,0l0.1,0.6  l1.5,0.5c1.8,0.6,3.6,1.3,5.4,2.2l1.5,0.7l1.2-1l6.4-4c0,0,0,0,0,0l7.7,7.7c0,0,0,0,0,0l-4,6.4c0,0,0,0,0,0l-1,1.2l0.8,1.4  c0.9,1.7,1.7,3.5,2.2,5.4l0.6,1.5l1.5,0.2l7.4,1.7c0,0,0,0,0,0V55.4z"/><path d="M50,28.8c-11.7,0-21.2,9.5-21.2,21.2c0,11.7,9.5,21.2,21.2,21.2c11.7,0,21.2-9.5,21.2-21.2C71.2,38.3,61.7,28.8,50,28.8z   M50,66.4c-9,0-16.4-7.4-16.4-16.4c0-9,7.4-16.4,16.4-16.4c9,0,16.4,7.4,16.4,16.4C66.4,59,59,66.4,50,66.4z"/><text x="0" y="115" fill="#000000" font-size="5px" font-weight="bold" font-family="'Helvetica Neue', Helvetica, Arial-Unicode, Arial, Sans-serif">Created by achmad mulyana</text><text x="0" y="120" fill="#000000" font-size="5px" font-weight="bold" font-family="'Helvetica Neue', Helvetica, Arial-Unicode, Arial, Sans-serif">from the Noun Project</text></svg>