<svg xmlns="http://www.w3.org/2000/svg" xmlns:xlink="http://www.w3.org/1999/xlink" version="1.1" x="0px" y="0px" viewBox="0 0 500 625" enable-background="new 0 0 500 500" xml:space="preserve"><g><g><g><path d="M458.8,240c-13.8,0-27.7,0-41.5,0c-33,0-66.1,0-99.1,0c-40.1,0-80.2,0-120.3,0c-34.6,0-69.1,0-103.7,0     c-16.8,0-33.8-0.6-50.6,0c-0.2,0-0.5,0-0.7,0c-12.9,0-12.9,20,0,20c13.8,0,27.7,0,41.5,0c33,0,66.1,0,99.1,0     c40.1,0,80.2,0,120.3,0c34.6,0,69.1,0,103.7,0c16.8,0,33.8,0.6,50.6,0c0.2,0,0.5,0,0.7,0C471.7,260,471.7,240,458.8,240     L458.8,240z"/></g></g><g><g><path d="M211.1,380.4c-18.4-15.5-36.7-31-55.1-46.5c-29.2-24.6-58.3-49.2-87.5-73.8c-6.7-5.7-13.5-11.4-20.2-17.1     c0,4.7,0,9.4,0,14.1c18.4-15.5,36.7-31,55.1-46.5c29.2-24.6,58.3-49.2,87.5-73.8c6.7-5.7,13.5-11.4,20.2-17.1     c4.1-3.5,3.6-10.5,0-14.1c-4.1-4.1-10-3.5-14.1,0c-18.4,15.5-36.7,31-55.1,46.5c-29.2,24.6-58.3,49.2-87.5,73.8     c-6.7,5.7-13.5,11.4-20.2,17.1c-3.9,3.3-3.9,10.9,0,14.1c18.4,15.5,36.7,31,55.1,46.5c29.2,24.6,58.3,49.2,87.5,73.8     c6.7,5.7,13.5,11.4,20.2,17.1c4.1,3.5,10.1,4,14.1,0C214.7,390.9,215.3,383.9,211.1,380.4L211.1,380.4z"/></g></g></g><text x="0" y="515" fill="#000000" font-size="5px" font-weight="bold" font-family="'Helvetica Neue', Helvetica, Arial-Unicode, Arial, Sans-serif">Created by Neha Tyagi</text><text x="0" y="520" fill="#000000" font-size="5px" font-weight="bold" font-family="'Helvetica Neue', Helvetica, Arial-Unicode, Arial, Sans-serif">from the Noun Project</text></svg>