<svg xmlns="http://www.w3.org/2000/svg" xmlns:xlink="http://www.w3.org/1999/xlink" version="1.1" x="0px" y="0px" viewBox="0 0 600 750" style="enable-background:new 0 0 600 600;" xml:space="preserve"><g><g><g><path d="M300,560c-69.448,0-134.74-27.045-183.848-76.152C67.044,434.74,40,369.448,40,300     c0-69.449,27.044-134.74,76.152-183.848C165.26,67.044,230.551,40,300,40c69.448,0,134.74,27.045,183.848,76.152     S560,230.551,560,300c0,69.448-27.045,134.74-76.152,183.848S369.448,560,300,560z M300,80C178.691,80,80,178.691,80,300     s98.691,220,220,220s220-98.691,220-220S421.309,80,300,80z"/></g><g><path d="M300,480c-99.252,0-180-80.748-180-180c0-99.252,80.748-180,180-180c99.252,0,180,80.748,180,180     C480,399.252,399.252,480,300,480z M300,160c-77.196,0-140,62.804-140,140s62.804,140,140,140s140-62.804,140-140     S377.196,160,300,160z"/></g></g></g><text x="0" y="615" fill="#000000" font-size="5px" font-weight="bold" font-family="'Helvetica Neue', Helvetica, Arial-Unicode, Arial, Sans-serif">Created by ibrandify</text><text x="0" y="620" fill="#000000" font-size="5px" font-weight="bold" font-family="'Helvetica Neue', Helvetica, Arial-Unicode, Arial, Sans-serif">from the Noun Project</text></svg>