<svg xmlns="http://www.w3.org/2000/svg" xmlns:xlink="http://www.w3.org/1999/xlink" version="1.1" x="0px" y="0px" viewBox="0 0 95 118.75" enable-background="new 0 0 95 95" xml:space="preserve"><path d="M88.624,15.555c-13.332-4.199-23.262-3.637-29.515,1.68c-7.912,6.723-7.143,18.652-6.858,21.334  c-1.529,1.979-2.65,3.873-3.467,5.566c-0.815,1.695-1.384,3.283-1.786,4.715c-0.904-1.846-2.311-3.922-4.49-6.046  c0.264-2.229,0.569-9.019-4.544-13.94c-5.821-5.603-16.418-6.656-31.495-3.127c-0.349,0.082-0.647,0.309-0.819,0.623  c-0.171,0.314-0.201,0.686-0.082,1.025c0.238,0.67,5.961,16.469,17.433,21.381c2.225,0.953,4.512,1.43,6.85,1.43  c2.667,0,5.398-0.621,8.171-1.861c0.635-0.282,0.919-1.027,0.636-1.662c-0.284-0.635-1.028-0.92-1.664-0.636  c-4.533,2.026-8.906,2.167-12.996,0.418c-8.631-3.692-13.916-14.753-15.529-18.588c13.253-2.888,22.83-1.923,27.749,2.813  c3.309,3.185,3.889,7.423,3.886,10.022c-3.835-3.021-9.388-6.019-17.424-8.48c-0.665-0.202-1.368,0.17-1.572,0.835  s0.17,1.368,0.835,1.573c9.108,2.791,14.786,6.252,18.323,9.547c0.008,0.008,0.015,0.014,0.022,0.021  c5.267,4.916,5.769,9.452,5.791,10.812c0,0.041,0,0.081,0,0.117c0,0.075-0.001,0.136-0.004,0.184H29.349  c-0.696,0-1.259,0.563-1.259,1.26v5.569c0,0.695,0.563,1.258,1.259,1.258h2.635l3.839,17.832c0.125,0.58,0.638,0.994,1.231,0.994  h21.483c0.593,0,1.106-0.414,1.231-0.994l3.839-17.832h2.508c0.696,0,1.259-0.563,1.259-1.258V56.57c0-0.697-0.563-1.26-1.259-1.26  H48.604c-0.002-0.07-0.005-0.161-0.005-0.278c0-0.006,0-0.012,0-0.02c-0.002-1.279,0.206-5.189,2.522-9.926  c3.753-7.67,11.334-14.033,21.923-18.397c0.642-0.265,0.949-1.001,0.683-1.646c-0.264-0.643-1-0.949-1.644-0.683  c-8.136,3.354-13.677,7.456-17.456,11.436c-0.047-4.231,0.679-12.034,6.121-16.651c5.373-4.558,14.091-5.078,25.929-1.553  c-1.453,4.618-7.364,21.496-17.27,25.457c-3.685,1.475-7.451,1.002-11.514-1.442c-0.596-0.36-1.37-0.167-1.728,0.43  c-0.359,0.595-0.167,1.368,0.429,1.728c2.915,1.754,5.795,2.634,8.609,2.634c1.742,0,3.458-0.337,5.142-1.012  c12.606-5.044,18.851-27.351,19.111-28.297C89.638,16.436,89.268,15.758,88.624,15.555z M64.857,57.829v3.051h-2.266H38.378  c-0.695,0-1.258,0.564-1.258,1.26s0.563,1.258,1.258,1.258h22.654l-3.511,16.307h-19.45l-3.84-17.83  c-0.125-0.58-0.638-0.994-1.23-0.994h-2.393v-3.051H64.857z"/><text x="0" y="110" fill="#000000" font-size="5px" font-weight="bold" font-family="'Helvetica Neue', Helvetica, Arial-Unicode, Arial, Sans-serif">Created by Guilherme Furtado</text><text x="0" y="115" fill="#000000" font-size="5px" font-weight="bold" font-family="'Helvetica Neue', Helvetica, Arial-Unicode, Arial, Sans-serif">from the Noun Project</text></svg>